<?xml version="1.0" encoding="iso-8859-1"?>
<!-- Generator: Adobe Illustrator 22.1.0, SVG Export Plug-In . SVG Version: 6.00 Build 0)  -->
<svg version="1.1" id="Layer_1" xmlns="http://www.w3.org/2000/svg" xmlns:xlink="http://www.w3.org/1999/xlink" x="0px" y="0px"
	 viewBox="0 0 626 305" style="enable-background:new 0 0 626 305;" xml:space="preserve">
<path style="fill:#363434;" d="M618.9,271.2c-1.9,0-3.4,0.6-4.6,1.8c-1.2,1.2-1.8,2.7-1.8,4.4c0,1.4,0.4,2.6,1.1,3.6
	c0.8,1.1,2.2,2.1,4.3,3.2c2,1,3.2,1.8,3.8,2.5s0.8,1.4,0.8,2.3c0,1-0.4,2-1.3,2.7c-0.8,0.8-1.9,1.2-3.1,1.2c-1.7,0-3.4-0.9-4.9-2.6
	l-1.9,2.1c0.8,1,1.8,1.8,3,2.4s2.5,0.9,3.9,0.9c2,0,3.7-0.7,5.1-2s2-3,2-4.9c0-1.4-0.4-2.6-1.2-3.7s-2.3-2.2-4.6-3.4
	c-1.8-0.9-3-1.8-3.6-2.5s-0.9-1.4-0.9-2.2c0-0.9,0.3-1.6,1-2.3c0.7-0.6,1.5-1,2.5-1c1.5,0,3.1,0.8,4.7,2.3l1.9-2
	C623.2,272.2,621,271.2,618.9,271.2 M574.9,281.5c0.6-2.1,1.5-3.8,2.7-4.8c1.6-1.5,3.6-2.2,5.9-2.2c1.4,0,2.7,0.3,4,0.9
	s2.3,1.4,3,2.3c0.8,1,1.4,2.2,1.8,3.8L574.9,281.5L574.9,281.5z M589.8,290.6c-0.8,0.7-1.7,1.2-2.9,1.6c-1.1,0.4-2.3,0.6-3.5,0.6
	c-2.5,0-4.5-0.9-6.2-2.6s-2.5-4-2.6-6.7h21c0-3.2-0.9-5.9-2.6-8c-2.4-3-5.6-4.5-9.5-4.5s-7,1.5-9.3,4.4c-1.8,2.3-2.7,5-2.7,7.9
	c0,3.2,1.1,6,3.2,8.5c2.2,2.5,5.1,3.7,8.9,3.7c1.7,0,3.3-0.3,4.6-0.8c1.4-0.5,2.6-1.3,3.7-2.3c1.1-1,2.1-2.3,2.9-4l-2.5-1.3
	C591.4,288.8,590.6,289.9,589.8,290.6 M552,273.7c-1-0.8-2.2-1.4-3.7-1.8c-1.4-0.5-2.9-0.7-4.5-0.7c-2.5,0-4.7,0.5-6.7,1.6
	s-3.6,2.6-4.7,4.5c-1.1,1.9-1.7,4-1.7,6.3c0,3.4,1.2,6.2,3.7,8.6c2.4,2.3,5.5,3.5,9.2,3.5c2.4,0,4.6-0.5,6.4-1.4
	c1.9-0.9,3.4-2.2,4.5-3.9l-2.4-1.6c-2.2,2.7-5,4.1-8.4,4.1c-1.9,0-3.6-0.4-5.1-1.2c-1.5-0.8-2.7-2-3.6-3.5c-0.9-1.5-1.3-3.1-1.3-4.8
	c0-2.6,0.9-4.8,2.8-6.7s4.2-2.7,7.1-2.7c3.6,0,6.4,1.4,8.4,4.1l2.4-1.5C553.9,275.5,553,274.5,552,273.7 M510,294.5h3v-23h-3V294.5z
	 M510.1,262.9c-0.5,0.5-0.7,1.1-0.7,1.8c0,0.7,0.2,1.3,0.7,1.7c0.5,0.5,1.1,0.7,1.7,0.7c0.7,0,1.3-0.2,1.8-0.7s0.7-1.1,0.7-1.7
	c0-0.7-0.2-1.3-0.7-1.8s-1.1-0.7-1.8-0.7C511.1,262.1,510.6,262.4,510.1,262.9 M482.6,294.5h0.6l10.5-23h-3.1l-7.7,16.7l-7.7-16.7
	h-3.1L482.6,294.5z M447,294.5h3v-7.8c0-4,0.2-6.6,0.6-8c0.5-1.7,1.2-3,2-3.8c0.9-0.8,1.8-1.2,2.8-1.2c0.4,0,1,0.1,1.5,0.4l1.5-2.5
	c-0.9-0.5-1.7-0.8-2.6-0.8c-1.1,0-2.1,0.3-3.1,1s-1.9,1.7-2.8,3v-3.4h-3v23.1H447z M409.8,281.5c0.6-2.1,1.5-3.8,2.7-4.8
	c1.7-1.5,3.6-2.2,5.9-2.2c1.4,0,2.7,0.3,4,0.9s2.3,1.4,3,2.3c0.8,1,1.4,2.2,1.8,3.8L409.8,281.5L409.8,281.5z M424.7,290.6
	c-0.8,0.7-1.7,1.2-2.9,1.6c-1.1,0.4-2.3,0.6-3.5,0.6c-2.5,0-4.5-0.9-6.2-2.6s-2.5-4-2.6-6.7h21c0-3.2-0.9-5.9-2.6-8
	c-2.4-3-5.6-4.5-9.5-4.5s-7,1.5-9.3,4.4c-1.8,2.3-2.7,5-2.7,7.9c0,3.2,1.1,6,3.2,8.5s5.1,3.7,8.9,3.7c1.7,0,3.3-0.3,4.6-0.8
	c1.4-0.5,2.6-1.3,3.7-2.3s2-2.3,2.9-4l-2.5-1.3C426.3,288.8,425.5,289.9,424.7,290.6 M383.4,271.2c-1.9,0-3.4,0.6-4.6,1.8
	c-1.2,1.2-1.8,2.7-1.8,4.4c0,1.4,0.4,2.6,1.1,3.6c0.8,1.1,2.2,2.1,4.3,3.2c2,1,3.2,1.8,3.8,2.5c0.6,0.7,0.8,1.4,0.8,2.3
	c0,1-0.4,2-1.3,2.7c-0.8,0.8-1.9,1.2-3.1,1.2c-1.7,0-3.4-0.9-4.9-2.6l-1.9,2.1c0.8,1,1.8,1.8,3,2.4s2.5,0.9,3.9,0.9
	c2,0,3.7-0.7,5.1-2c1.3-1.3,2-3,2-4.9c0-1.4-0.4-2.6-1.2-3.7c-0.8-1.1-2.3-2.2-4.6-3.4c-1.8-0.9-3-1.8-3.6-2.5s-0.9-1.4-0.9-2.2
	c0-0.9,0.3-1.6,1-2.3c0.7-0.6,1.5-1,2.5-1c1.5,0,3.1,0.8,4.7,2.3l1.9-2C387.8,272.2,385.6,271.2,383.4,271.2 M315,281.5
	c0.6-2.1,1.5-3.8,2.7-4.8c1.6-1.5,3.6-2.2,5.9-2.2c1.4,0,2.7,0.3,4,0.9s2.3,1.4,3,2.3c0.8,1,1.4,2.2,1.8,3.8L315,281.5L315,281.5z
	 M329.9,290.6c-0.8,0.7-1.7,1.2-2.9,1.6c-1.1,0.4-2.3,0.6-3.5,0.6c-2.5,0-4.5-0.9-6.2-2.6s-2.5-4-2.6-6.7h21c0-3.2-0.9-5.9-2.6-8
	c-2.4-3-5.6-4.5-9.5-4.5s-7,1.5-9.3,4.4c-1.8,2.3-2.7,5-2.7,7.9c0,3.2,1.1,6,3.2,8.5c2.2,2.5,5.1,3.7,8.9,3.7c1.7,0,3.3-0.3,4.6-0.8
	c1.4-0.5,2.6-1.3,3.7-2.3s2.1-2.3,2.9-4l-2.5-1.3C331.5,288.8,330.7,289.9,329.9,290.6 M286.7,275.3c1.4,0.8,2.5,1.9,3.3,3.3
	s1.2,3,1.2,4.7c0,2.7-0.8,4.9-2.5,6.6s-3.9,2.5-6.7,2.5c-2.7,0-5-0.8-6.7-2.5s-2.6-3.8-2.6-6.4c0-1.7,0.4-3.3,1.2-4.7
	c0.8-1.5,2-2.6,3.4-3.4c1.5-0.8,3-1.2,4.7-1.2C283.7,274.1,285.3,274.5,286.7,275.3 M291,275.5c-1.4-1.4-2.9-2.6-4.4-3.3
	s-3.1-1.1-4.9-1.1c-2.1,0-4.1,0.5-6,1.6s-3.4,2.6-4.5,4.4c-1.1,1.9-1.6,3.9-1.6,6c0,2.2,0.5,4.1,1.5,6c1,1.8,2.5,3.2,4.4,4.3
	c1.9,1.1,3.9,1.6,6.1,1.6c1.8,0,3.6-0.4,5.2-1.1c1.6-0.8,5.2-3.3,5.2-3.3v1.2c0,0-1.3,4.4-1.9,5.6s-1.6,2.1-3,2.9s-3.1,1.1-5.2,1.1
	s-3.8-0.4-5.2-1.1c-1.4-0.7-2.6-1.9-3.4-3.8H270c0.8,2.2,1.8,3.6,2.8,4.6s2.3,1.7,3.9,2.3c1.6,0.6,3.4,0.9,5.4,0.9
	c2.7,0,5.1-0.6,7-1.7c1.9-1.2,3.3-2.8,4.1-5c0.6-1.5,0.9-3.9,0.8-7.2v-18.9h-3L291,275.5L291,275.5z M246.3,276.8
	c1.8,1.8,2.7,4.1,2.7,6.8c0,1.8-0.4,3.4-1.2,4.8s-1.9,2.5-3.4,3.4c-1.5,0.8-3,1.2-4.7,1.2c-1.6,0-3.2-0.4-4.6-1.3
	c-1.4-0.8-2.6-2-3.4-3.5c-0.8-1.5-1.3-3.1-1.3-4.7c0-1.7,0.4-3.2,1.3-4.7c0.8-1.5,2-2.6,3.4-3.5c1.4-0.8,3-1.2,4.6-1.2
	C242.3,274.1,244.5,275,246.3,276.8 M249,262.6v13.1c-1.2-1.6-2.5-2.9-4.1-3.7c-1.6-0.8-3.3-1.2-5.2-1.2c-3.3,0-6.2,1.2-8.5,3.6
	c-2.4,2.4-3.5,5.2-3.5,8.5c0,3.4,1.2,6.3,3.5,8.7s5.2,3.6,8.5,3.6c1.9,0,3.6-0.4,5.1-1.2c1.6-0.8,3-1.9,4.2-3.5v4h3v-32L249,262.6
	L249,262.6z M189.7,281.5c0.6-2.1,1.5-3.8,2.7-4.8c1.7-1.5,3.6-2.2,5.9-2.2c1.4,0,2.7,0.3,4,0.9s2.3,1.4,3,2.3
	c0.8,1,1.4,2.2,1.8,3.8L189.7,281.5L189.7,281.5z M204.6,290.6c-0.8,0.7-1.7,1.2-2.9,1.6c-1.1,0.4-2.3,0.6-3.5,0.6
	c-2.5,0-4.5-0.9-6.2-2.6s-2.5-4-2.6-6.7h21c0-3.2-0.9-5.9-2.6-8c-2.4-3-5.6-4.5-9.5-4.5s-7,1.5-9.3,4.4c-1.8,2.3-2.7,5-2.7,7.9
	c0,3.2,1.1,6,3.2,8.5c2.2,2.5,5.1,3.7,8.9,3.7c1.7,0,3.3-0.3,4.6-0.8c1.4-0.5,2.6-1.3,3.7-2.3c1.1-1,2.1-2.3,2.9-4l-2.5-1.3
	C206.2,288.8,205.4,289.9,204.6,290.6 M166,294.5h3v-32h-3V294.5z M124.4,294.5h0.6l7.4-16.4l7.4,16.4h0.6l10-23h-3l-7.2,16.7
	l-7.4-16.7H132l-7.4,16.7l-7.1-16.7h-3L124.4,294.5z M93.8,276.9c1.8,1.8,2.7,4.1,2.7,6.7c0,1.7-0.4,3.3-1.2,4.7
	c-0.8,1.5-1.9,2.6-3.3,3.4s-2.9,1.2-4.6,1.2s-3.2-0.4-4.6-1.2c-1.4-0.8-2.5-1.9-3.3-3.4s-1.2-3-1.2-4.7c0-2.6,0.9-4.9,2.7-6.7
	c1.8-1.8,3.9-2.8,6.4-2.8C89.8,274.1,92,275,93.8,276.9 M78.4,275.1c-2.2,2.4-3.2,5.2-3.2,8.4c0,3.3,1.1,6.1,3.4,8.6
	c2.3,2.4,5.2,3.7,8.8,3.7c3.6,0,6.5-1.2,8.8-3.7c2.3-2.4,3.4-5.3,3.4-8.6c0-3.3-1.1-6.1-3.2-8.4c-2.4-2.6-5.4-3.9-9-3.9
	C83.7,271.2,80.8,272.5,78.4,275.1 M37.2,294.5H40v-8.6c0-3.1,0.1-5.2,0.4-6.4c0.5-1.8,1.4-3.3,2.7-4.5c1.4-1.2,3-1.8,4.8-1.8
	c1.6,0,2.8,0.4,3.8,1.2c1,0.8,1.7,1.9,2,3.5c0.2,0.9,0.3,2.7,0.3,5.4v11.2l4,1v-12c0-3.2-0.3-5.5-1-7c-0.6-1.5-1.6-2.7-3.1-3.6
	c-1.4-0.9-3-1.3-4.8-1.3c-1.7,0-3.4,0.4-4.9,1.2c-1.5,0.8-2.9,2-4.1,3.6v-4.9h-3v23L37.2,294.5L37.2,294.5z M2.9,294.5H5v-9.9
	l12.5,9.9h4.2L8.1,282.9L21,271.5h-4.4L6,281.2v-18.7H3v32H2.9z"/>
<g>
	<path style="fill:#363434;" d="M611.6,144.6c-5.1-2.5-10.5-3.8-16.3-3.8c-8.5,0-15.4,2.5-20.8,7.5c-5.4,5-8.1,11-8.1,18
		c0,10.9,7.2,20,21.6,27.2l7.5,3.8c6.5,3.3,9.7,6.6,9.7,10.1c0,1.9-0.9,3.5-2.7,4.9s-4.2,2.1-7.1,2.1c-2.7,0-5.8-0.9-9.4-2.8
		s-6.6-4.3-9.2-7.4l-13.7,15c7.7,10.1,18.1,15.2,31.1,15.2c9.8,0,17.5-2.6,23.4-7.9c5.8-5.3,8.7-11.9,8.7-19.8
		c0-5.9-1.6-11.1-4.8-15.5s-9.1-8.8-17.8-13l-8.2-4.1c-3.5-1.7-5.8-3.1-6.7-4.1s-1.3-2.1-1.3-3.3c0-1.6,0.7-2.9,2.1-4
		c1.4-1.1,3.4-1.6,5.9-1.6c4.6,0,9.7,2.8,15.3,8.3l13.8-13.8C621,150.8,616.7,147.1,611.6,144.6 M459.9,180.5
		c0,14.1,0.9,24,2.6,29.3c2.5,7.8,6.7,13.8,12.7,18.1c6,4.4,13.9,6.5,23.6,6.5c9,0,16.4-1.9,22.2-5.6c5.8-3.7,10.3-9.1,13.3-16
		c2.5-5.7,3.7-16.3,3.7-31.7v-38.6h-23v44.2c0.4,8.4-0.1,13.9-1,16.4c-1.3,3.4-3.2,6-5.8,7.8c-2.6,1.8-5.8,2.7-9.5,2.7
		s-6.8-0.9-9.4-2.7c-2.5-1.8-4.4-4.3-5.5-7.6c-1.1-3.2-1.7-9-1.8-17.4v-42.4h-22L459.9,180.5L459.9,180.5z M407,232.5h22v-89h-22
		V232.5z M351.6,168.7c4.6,4.9,6.9,11.1,6.9,18.8s-2.3,14-7,19s-10.4,7.4-17.2,7.4c-7,0-12.9-2.4-17.5-7.3c-4.6-4.9-7-11.3-7-19.2
		c0-7.7,2.3-14,7-18.8c4.6-4.8,10.5-7.2,17.5-7.2C341.2,161.4,347,163.9,351.6,168.7 M289,108.6v122.9h22v-9.4
		c4.4,4.1,8.7,7.1,13.1,9c4.4,1.8,9.1,2.7,14.2,2.7c11.4,0,21.3-4.5,29.6-13.3s12.5-19.9,12.5-33.2c0-13.6-4.1-24.9-12.1-33.7
		s-17.8-13.1-29.3-13.1c-5.3,0-10.3,1-15,3s-9,5-13,9.1v-44L289,108.6L289,108.6z M0,231.5h22v-39.6c0-8.6,0.8-14.8,2.3-18.8
		s3.8-7.1,6.8-9.3s6.4-3.3,10.2-3.3c3.3,0,6.2,0.9,8.5,2.6c2.4,1.7,4.1,4.4,5.3,8s1.8,9.3,1.8,17.3v43.1h23v-39.6
		c-0.1-8.5,0.6-14.7,2.1-18.5s3.7-6.9,6.7-9c3-2.2,6.4-3.3,10.3-3.3c5,0,8.8,1.8,11.3,5.4c2.5,3.6,3.8,10.4,3.6,20.5v45.5h23v-52.2
		c0-10.7-1.1-18.4-3.2-23.2c-2.1-4.7-5.6-8.6-10.5-11.5c-4.8-2.9-10.5-4.4-16.8-4.4c-6.1,0-11.8,1.4-17,4.1
		c-5.2,2.7-9.6,6.7-13.2,11.9c-2.7-5.2-6.3-9.2-10.9-11.9s-9.6-4.1-15.2-4.1c-5.5,0-10.7,1-15.4,3.1s-9,5.2-12.8,9.4v-10.2H0V231.5z
		"/>
	<g>
		<path style="fill:#E24D2D;" d="M165.9,140.2c2,11,4.2,21.9,7.7,32.5c1.9,5.6,4.2,11,7.4,16.1c4,6.3,9.6,10.5,17,12.2
			c5.2,1.2,10.3,0.7,15.1-1.6c5.9-2.8,8.7-7.8,9.2-14.1c0.4-5.3-1.5-10-4.3-14.4c-2.7-4.1-6.3-7.3-10-10.4
			c-11.9-9.8-25-17.8-39-24.2c-0.3-0.1-0.5-0.2-1.2-0.5c4.7,0.3,9,0.5,13.3,0.9c4.9,0.4,9.8,0.9,14.7,1.6c14.5,2.1,28.6,5.7,41.4,13
			c8,4.6,14.8,10.3,19.5,18.4c4.9,8.7,7.1,18,5.8,27.8c-1.7,12.8-8.5,22.4-19.6,29.1c-7,4.2-14.6,6.5-22.8,7.3
			c-6.6,0.7-13.2,0.3-19.7-1.1c-10.8-2.3-18.7-8.5-24-18.1c-3.9-6.9-6.1-14.4-7.7-22.1c-1.5-7.6-2.5-15.2-2.7-22.9
			c-0.2-9.1-0.2-18.1-0.3-27.2C165.7,141.7,165.8,141,165.9,140.2"/>
		<path style="fill:#E24D2D;" d="M164.2,135.5c-4.1-0.2-8.2-0.4-12.4-0.7c-3-0.2-5.9-0.5-8.9-0.7c-13.3-0.9-26.6-2.2-39.8-4.5
			c-9-1.6-17.9-3.6-26.4-7.3c-0.5-0.2-0.9-0.4-1.4-0.6c-12.5-5.3-19.2-15.1-22.1-27.8c-2.5-11-2-21.9,1.2-32.6
			c7.7-26.3,25-43.9,50.5-53.9c8-3.1,16.4-4.9,25-5.4c7.9-0.5,15.7,0.3,23.2,2.9c8.2,2.8,14.8,7.6,18.9,15.4
			c2.5,4.7,3.9,9.8,4.3,15.1c0.4,5.2,0.6,10.5,0.4,15.7c-0.2,5.5-0.9,10.9-1.5,16.3c-0.7,6.1-1.6,12.1-2.4,18.2
			c-0.8,5.8-1.6,11.7-2.4,17.5c-0.6,4.5-1.1,9-1.6,13.5c-0.5,4.9-1,9.9-1.6,14.9c-0.2-2.1-0.6-4.2-0.7-6.3
			c-0.5-11.4-1-22.9-1.5-34.3c-0.3-7.3-0.7-14.5-1.3-21.8c-0.6-7.7-1.7-15.4-3.9-22.9c-1.5-4.9-3.4-9.7-6.6-13.8
			c-5.3-6.9-12.6-10.9-21.2-12.2c-15.8-2.3-29.8,2.1-41.5,12.8c-6.6,6-10.4,13.8-12.1,22.5c-2.4,11.8-0.9,23.2,4.6,34
			c3.3,6.5,8.2,11.7,13.9,16.1c7,5.5,14.8,9.6,22.9,13.2c10.7,4.8,21.9,8.5,33.1,12.1c3.9,1.2,7.6,2.7,11.5,4.1
			C164.2,135.2,164.2,135.3,164.2,135.5"/>
		<path style="fill:#E24D2D;" d="M418.3,133.7c7.5,0,13.5-6.1,13.5-13.5c0-7.5-6.1-13.5-13.5-13.5c-7.5,0-13.5,6.1-13.5,13.5
			C404.7,127.6,410.8,133.7,418.3,133.7"/>
	</g>
</g>
</svg>
